#N canvas 416 243 1465 917 12;
#X obj 33 17 tgl 15 0 empty empty empty 17 7 0 10 #fcfcfc #000000 #000000 0 1;
#X obj 481 81 loadbang;
#X msg 481 109 \; pianoPhrase 0 64 66 71 73 74 66 64 73 71 66 74 73;
#X floatatom 261 153 5 0 0 0 - - - 0;
#X floatatom 261 202 5 0 0 0 - - - 0;
#X obj 261 227 makenote 100 125;
#X obj 261 257 noteout 2;
#X floatatom 72 153 5 0 0 0 - - - 0;
#X floatatom 72 202 5 0 0 0 - - - 0;
#X obj 72 227 makenote 100 125;
#X obj 72 257 noteout 1;
#X obj 33 387 timer;
#X floatatom 33 417 0 0 0 0 - - - 0;
#X obj 72 66 metro 138;
#X obj 261 66 metro 139;
#X obj 319 387 timer;
#X floatatom 319 417 0 0 0 0 - - - 0;
#X msg 380 368 tempo 1 sec;
#X obj 35 483 text define stave1;
#X obj 319 483 text define stave2;
#X obj 32 452 text set stave1;
#X obj 319 454 text set stave2;
#X obj 365 326 loadbang;
#X msg 222 464 clear;
#X obj 121 308 bang;
#X obj 355 282 bang;
#X obj 33 336 sel 1;
#X obj 33 37 t f f;
#X obj 261 176 array get pianoPhrase 0 1;
#X obj 72 176 array get pianoPhrase 0 1;
#X obj 481 153 array define pianoPhrase 12;
#X obj 599 429 savepanel;
#X obj 737 434 savepanel;
#X obj 599 402 bng 15 250 50 0 empty empty empty 17 7 0 10 #ff8300 #000000 #000000;
#X obj 737 408 bng 15 250 50 0 empty empty empty 17 7 0 10 #ff8300 #000000 #000000;
#X msg 738 460 write -c \$1;
#X msg 599 461 write -c \$1;
#X text 643 402 salva o txt;
#X obj 72 99 f;
#X obj 103 99 + 1;
#X obj 261 99 f;
#X obj 293 99 + 1;
#X obj 261 123 % 12;
#X obj 72 123 % 12;
#X obj 150 96 0;
#N canvas 1372 269 768 473 record 1;
#X msg 30 78 record;
#X obj 240 180 cyclone/midiformat;
#X msg 103 93 stop;
#X obj 117 260 seq;
#X msg 151 91 clear;
#X obj 240 154 inlet;
#X obj 440 183 cyclone/midiformat;
#X obj 317 263 seq;
#X obj 440 157 inlet;
#X obj 100 -9 inlet;
#X msg 218 89 write stave1.mid;
#X msg 352 91 write stave2.mid;
#X obj 105 48 bng 15 250 50 0 empty empty empty 17 7 0 10 #fcfcfc #000000 #000000;
#X obj 100 15 route record stop clear write;
#X connect 0 0 3 0;
#X connect 0 0 7 0;
#X connect 1 0 3 0;
#X connect 2 0 3 0;
#X connect 2 0 7 0;
#X connect 4 0 3 0;
#X connect 4 0 7 0;
#X connect 5 0 1 0;
#X connect 6 0 7 0;
#X connect 8 0 6 0;
#X connect 9 0 13 0;
#X connect 10 0 3 0;
#X connect 11 0 7 0;
#X connect 13 0 0 0;
#X connect 13 0 12 0;
#X connect 13 1 2 0;
#X connect 13 2 4 0;
#X connect 13 3 10 0;
#X connect 13 3 11 0;
#X restore 518 345 pd record;
#X obj 186 261 pack;
#X obj 414 252 pack;
#X msg 518 252 record;
#X msg 581 252 stop;
#X msg 629 252 clear;
#X msg 682 252 write;
#X msg 365 422 0;
#X connect 0 0 27 0;
#X connect 1 0 2 0;
#X connect 3 0 28 0;
#X connect 4 0 5 0;
#X connect 5 0 6 0;
#X connect 5 0 47 0;
#X connect 5 1 6 1;
#X connect 5 1 47 1;
#X connect 7 0 29 0;
#X connect 8 0 9 0;
#X connect 9 0 10 0;
#X connect 9 0 46 0;
#X connect 9 1 10 1;
#X connect 9 1 46 1;
#X connect 11 0 12 0;
#X connect 12 0 20 0;
#X connect 13 0 24 0;
#X connect 13 0 38 0;
#X connect 14 0 25 0;
#X connect 14 0 40 0;
#X connect 15 0 16 0;
#X connect 16 0 21 0;
#X connect 17 0 15 0;
#X connect 17 0 11 0;
#X connect 22 0 17 0;
#X connect 22 0 52 0;
#X connect 23 0 18 0;
#X connect 23 0 19 0;
#X connect 24 0 11 1;
#X connect 25 0 15 1;
#X connect 26 0 11 0;
#X connect 26 0 23 0;
#X connect 26 0 15 0;
#X connect 26 0 44 0;
#X connect 27 0 13 0;
#X connect 27 0 14 0;
#X connect 27 1 26 0;
#X connect 28 0 4 0;
#X connect 29 0 8 0;
#X connect 31 0 36 0;
#X connect 32 0 35 0;
#X connect 33 0 31 0;
#X connect 34 0 32 0;
#X connect 35 0 19 0;
#X connect 36 0 18 0;
#X connect 38 0 39 0;
#X connect 38 0 43 0;
#X connect 39 0 38 1;
#X connect 40 0 41 0;
#X connect 40 0 42 0;
#X connect 41 0 40 1;
#X connect 42 0 3 0;
#X connect 43 0 7 0;
#X connect 44 0 38 1;
#X connect 44 0 40 1;
#X connect 46 0 45 1;
#X connect 47 0 45 2;
#X connect 48 0 45 0;
#X connect 49 0 45 0;
#X connect 50 0 45 0;
#X connect 51 0 45 0;
#X connect 52 0 21 1;
#X connect 52 0 20 1;
